<svg width="107" height="42" viewBox="0 0 107 42" fill="none" xmlns="http://www.w3.org/2000/svg">
<path d="M29.2528 0.000658442V16.3873H26.6109V9.52845L26.8682 3.72273L18.6621 16.3873H15.5526V0.000658442H18.1943V6.85947L17.9607 12.6417L26.1435 0.000658442H29.2528Z" fill="black"/>
<path d="M41.9776 5.99366H37.7927V16.3873H35.1507V5.99366H30.9425V3.51194H37.7927H41.9776V5.99366" fill="black"/>
<path d="M55.9438 9.94952C55.9438 13.7889 53.1619 16.6681 49.3041 16.6681C46.2647 16.6681 43.4828 14.8891 42.8982 11.682H45.6335C46.1012 13.3674 47.621 14.2804 49.3041 14.2804C51.3382 14.2804 52.8345 12.946 53.1852 10.9329H48.4391V8.84928H53.1619C52.7878 6.9065 51.3146 5.61912 49.2808 5.61912C47.5507 5.61912 46.0778 6.55497 45.6335 8.19388H42.8982C43.4591 5.08015 46.1948 3.23079 49.2808 3.23079C53.1386 3.23079 55.9438 6.11039 55.9438 9.94952" fill="black"/>
<path d="M70.0036 3.51195V16.3873H67.362V5.99366H63.1068L62.2651 11.3778C61.6339 15.2168 60.208 16.6681 58.0103 16.6681C57.5893 16.6681 57.1216 16.5981 56.7009 16.5278V14.14C56.9581 14.1634 57.2152 14.2103 57.4723 14.2103C58.7114 14.2103 59.2494 13.5313 59.6467 11.1435L60.8625 3.51195H70.0036Z" fill="black"/>
<path d="M86.6305 3.51194V16.3873H83.9889V11.0032L84.1757 6.53196L79.757 12.8291H79.6871L75.2684 6.53196L75.4552 11.0032V16.3873H72.8132V3.51194H75.9229L79.7104 8.80238L83.5212 3.51194H86.6305Z" fill="black"/>
<path d="M99.339 9.94952C99.339 7.49183 97.6323 5.75953 95.388 5.75953C93.1437 5.75953 91.5539 7.49183 91.5539 9.94952C91.5539 12.4311 93.167 14.14 95.388 14.14C97.6323 14.14 99.339 12.4311 99.339 9.94952V9.94952ZM101.957 3.51195V16.3873H99.3157V14.2338C98.3804 15.7086 96.8376 16.6681 94.8267 16.6681C91.39 16.6681 88.8885 13.8824 88.8885 9.94952C88.8885 6.01667 91.4369 3.23079 94.8034 3.23079C96.8376 3.23079 98.3804 4.23768 99.3157 5.7125V3.51195H101.957" fill="black"/>
<path d="M105.395 4.67062H105.68C105.853 4.67062 105.909 4.59925 105.909 4.47151C105.909 4.34944 105.853 4.28307 105.68 4.28307H105.395V4.67062ZM105.868 4.88474L106.265 5.40002H105.909L105.532 4.90008H105.395V5.40002H105.099V4.02793H105.761C106.057 4.02793 106.209 4.20636 106.209 4.4665C106.209 4.68596 106.082 4.83905 105.868 4.88474V4.88474ZM106.754 4.7013C106.754 4.07395 106.25 3.56901 105.624 3.56901C104.997 3.56901 104.488 4.07395 104.488 4.7013C104.488 5.33332 104.997 5.83827 105.624 5.83827C106.25 5.83827 106.754 5.33332 106.754 4.7013ZM106.999 4.7013C106.999 5.46106 106.382 6.07806 105.624 6.07806C104.865 6.07806 104.249 5.46106 104.249 4.7013C104.249 3.94121 104.865 3.32454 105.624 3.32454C106.382 3.32454 106.999 3.94121 106.999 4.7013Z" fill="black"/>
<path d="M21.7629 25.5408C21.7629 27.612 20.2739 29.163 18.2055 29.163C16.5569 29.163 15.2379 28.1822 14.8282 26.7315H16.0372C16.387 27.582 17.2263 28.0823 18.2055 28.0823C19.4646 28.0823 20.3739 27.2418 20.5737 26.0512H17.626V24.9705H20.5636C20.3438 23.81 19.4445 22.9996 18.2055 22.9996C17.2164 22.9996 16.387 23.4999 16.0372 24.3504H14.8282C15.2278 22.8997 16.5368 21.9189 18.1955 21.9189C20.2739 21.9189 21.7629 23.4699 21.7629 25.5408" fill="black"/>
<path d="M27.907 23.54V29.0427H26.7779V24.6005H24.9593L24.5997 26.9015C24.3298 28.5424 23.7203 29.163 22.7811 29.163C22.6012 29.163 22.4013 29.1326 22.2214 29.1026V28.0823C22.3313 28.0923 22.4413 28.1122 22.5514 28.1122C23.0808 28.1122 23.3107 27.822 23.4806 26.8016L24.0001 23.54H27.907" fill="black"/>
<path d="M30.3312 25.6808H33.5286C33.3591 24.9306 32.7894 24.4002 31.96 24.4002C31.1007 24.4002 30.5211 24.9404 30.3312 25.6808V25.6808ZM34.7377 26.6016H30.2713C30.3612 27.612 31.0707 28.1722 31.99 28.1722C32.6494 28.1722 33.199 27.8919 33.459 27.3521H34.6278C34.1981 28.5825 33.1491 29.163 31.98 29.163C30.3114 29.163 29.1223 27.962 29.1223 26.3013C29.1223 24.6405 30.3013 23.4198 31.96 23.4198C33.7288 23.4198 34.8476 24.7907 34.7377 26.6016" fill="black"/>
<path d="M39.6314 29.0427L37.0433 26.5012V29.0427H35.9142V23.54H37.0433V25.9211L39.4212 23.54H40.8705L38.1825 26.1511L41.0903 29.0427H39.6314" fill="black"/>
<path d="M46.434 24.6005H44.6453V29.0427H43.5161V24.6005H41.7175V23.54H44.6453H46.434V24.6005Z" fill="black"/>
<path d="M51.8489 26.2911C51.8489 25.2407 51.1694 24.5005 50.2101 24.5005C49.2508 24.5005 48.5214 25.2407 48.5214 26.2911C48.5214 27.352 49.2508 28.0822 50.2101 28.0822C51.1594 28.0822 51.8489 27.352 51.8489 26.2911ZM52.988 26.2911C52.988 27.9721 51.9188 29.1629 50.4499 29.1629C49.5906 29.1629 48.9311 28.7424 48.5314 28.1222V31.5441H47.4022V23.54H48.5314V24.4802C48.9311 23.8501 49.5906 23.4198 50.4599 23.4198C51.8989 23.4198 52.988 24.6105 52.988 26.2911" fill="black"/>
<path d="M55.1055 26.2912C55.1055 27.3521 55.8549 28.0823 56.8142 28.0823C57.7735 28.0823 58.5229 27.3521 58.5229 26.2912C58.5229 25.2307 57.7631 24.5005 56.8142 24.5005C55.8649 24.5005 55.1055 25.2307 55.1055 26.2912ZM59.6617 26.2912C59.6617 27.9421 58.413 29.163 56.8142 29.163C55.2254 29.163 53.9663 27.932 53.9663 26.2912C53.9663 24.6303 55.2454 23.4198 56.8142 23.4198C58.3927 23.4198 59.6617 24.6303 59.6617 26.2912" fill="black"/>
<path d="M66.0339 23.54V29.0427H64.9048V26.7716H61.9869V29.0427H60.8581V23.54H61.9869V25.701H64.9048V23.54H66.0339Z" fill="black"/>
<path d="M72.68 23.54V29.0427H71.5508V26.7716H68.633V29.0427H67.5038V23.54H68.633V25.701H71.5508V23.54H72.68Z" fill="black"/>
<path d="M80.7646 23.54V29.0427H79.6355V23.54H80.7646ZM77.6873 27.1117C77.6873 26.6016 77.4874 26.2612 76.7979 26.2612H75.2791V27.962H76.7779C77.4674 27.962 77.6873 27.6018 77.6873 27.1117V27.1117ZM78.8264 27.1117C78.8264 28.4323 77.9471 29.0427 76.8179 29.0427H74.1499V23.54H75.2791V25.2606H76.8575C77.987 25.2606 78.8264 25.7909 78.8264 27.1117Z" fill="black"/>
<path d="M83.1951 25.6808H86.3924C86.2228 24.9306 85.6533 24.4002 84.8236 24.4002C83.9645 24.4002 83.385 24.9404 83.1951 25.6808V25.6808ZM87.6015 26.6016H83.1352C83.2251 27.612 83.9346 28.1722 84.8539 28.1722C85.513 28.1722 86.0626 27.8919 86.3224 27.3521H87.4916C87.0619 28.5825 86.0127 29.163 84.8439 29.163C83.1751 29.163 81.986 27.962 81.986 26.3013C81.986 24.6405 83.1651 23.4198 84.8236 23.4198C86.5926 23.4198 87.7114 24.7907 87.6015 26.6016" fill="black"/>
<path d="M19.5746 36.7471C19.5746 35.6969 18.895 34.9564 17.9358 34.9564C16.9765 34.9564 16.2471 35.6969 16.2471 36.7471C16.2471 37.808 16.9765 38.538 17.9358 38.538C18.8851 38.538 19.5746 37.808 19.5746 36.7471ZM20.7137 36.7471C20.7137 38.4279 19.6444 39.619 18.1756 39.619C17.3164 39.619 16.6568 39.1984 16.2571 38.578V42H15.128V33.9959H16.2571V34.9364C16.6568 34.306 17.3164 33.8758 18.1856 33.8758C19.6245 33.8758 20.7137 35.0664 20.7137 36.7471" fill="black"/>
<path d="M22.9011 36.1371H26.0986C25.9287 35.3867 25.3593 34.8563 24.5298 34.8563C23.6706 34.8563 23.091 35.3963 22.9011 36.1371ZM27.3077 37.0575H22.8411C22.931 38.0678 23.6405 38.628 24.5599 38.628C25.2192 38.628 25.7689 38.3479 26.0287 37.8079H27.1978C26.768 39.0383 25.7188 39.619 24.5499 39.619C22.8811 39.619 21.6921 38.418 21.6921 36.7571C21.6921 35.0965 22.8712 33.8758 24.5298 33.8758C26.2986 33.8758 27.4177 35.2466 27.3077 37.0575" fill="black"/>
<path d="M35.8679 33.9959V39.4986H28.4839V33.9959H29.6129V38.4384H31.6114V33.9959H32.7405V38.4384H34.739V33.9959H35.8679" fill="black"/>
<path d="M38.3024 36.1371H41.5C41.3298 35.3867 40.7605 34.8563 39.9312 34.8563C39.0718 34.8563 38.4922 35.3963 38.3024 36.1371ZM42.7091 37.0575H38.2424C38.3324 38.0678 39.0418 38.628 39.9611 38.628C40.6206 38.628 41.1702 38.3479 41.43 37.8079H42.5988C42.1692 39.0383 41.1203 39.619 39.9512 39.619C38.2824 39.619 37.0933 38.418 37.0933 36.7571C37.0933 35.0965 38.2724 33.8758 39.9312 33.8758C41.6998 33.8758 42.819 35.2466 42.7091 37.0575Z" fill="black"/>
<path d="M49.061 33.9959V39.4986H47.9319V37.2277H45.014V39.4986H43.8852V33.9959H45.014V36.157H47.9319V33.9959H49.061Z" fill="black"/>
<path d="M55.6371 33.9959V39.4986H54.5079V37.1977L54.5779 35.4567L51.8599 39.4986H50.5309V33.9959H51.66V36.2972L51.5901 38.0277L54.3081 33.9959H55.6371" fill="black"/>
<path d="M60.5374 36.5769V35.0164H58.9686C58.2691 35.0164 58.0492 35.3563 58.0492 35.8166C58.0492 36.2671 58.329 36.5769 58.9985 36.5769H60.5374ZM61.6665 33.9959V39.4986H60.5374V37.5075H59.4482L58.0193 39.4986H56.6303L58.2391 37.4274C57.4797 37.2377 56.9101 36.7571 56.9101 35.8369C56.9101 34.5662 57.7794 33.9959 58.9086 33.9959H61.6665" fill="black"/>
<path d="M0.872914 7.00818C0.390854 7.00818 0 6.61696 0 6.13403C0 5.65143 0.390854 5.26021 0.872914 5.26021C1.35498 5.26021 1.74583 5.65143 1.74583 6.13403C1.74583 6.61696 1.35498 7.00818 0.872914 7.00818" fill="black"/>
<path d="M7.53069 7.00818C7.04862 7.00818 6.65778 6.61696 6.65778 6.13403C6.65778 5.65143 7.04862 5.26021 7.53069 5.26021C8.01286 5.26021 8.40373 5.65143 8.40373 6.13403C8.40373 6.61696 8.01286 7.00818 7.53069 7.00818" fill="black"/>
<path d="M7.53069 13.6749C7.04862 13.6749 6.65778 13.2835 6.65778 12.8009C6.65778 12.318 7.04862 11.9267 7.53069 11.9267C8.01286 11.9267 8.40373 12.318 8.40373 12.8009C8.40373 13.2835 8.01286 13.6749 7.53069 13.6749" fill="black"/>
</svg>
