<svg width="66" height="35" viewBox="0 0 66 35" fill="none" xmlns="http://www.w3.org/2000/svg">
<path d="M19.0183 29.469C19.0183 31.4589 17.4052 33.0721 15.4153 33.0721C13.4254 33.0721 11.8123 31.4589 11.8123 29.469C11.8123 27.4792 13.4254 25.866 15.4153 25.866C17.4052 25.866 19.0183 27.4792 19.0183 29.469Z" fill="white"/>
<path d="M29.7763 29.469C29.7763 31.4589 28.1632 33.0721 26.1733 33.0721C24.1834 33.0721 22.5703 31.4589 22.5703 29.469C22.5703 27.4792 24.1834 25.866 26.1733 25.866C28.1632 25.866 29.7763 27.4792 29.7763 29.469Z" fill="white"/>
<path d="M59.0634 29.4968C59.0634 31.4867 57.4503 33.0998 55.4604 33.0998C53.4705 33.0998 51.8574 31.4867 51.8574 29.4968C51.8574 27.5069 53.4705 25.8938 55.4604 25.8938C57.4503 25.8938 59.0634 27.5069 59.0634 29.4968Z" fill="white"/>
<path d="M1 1H49.5691V26.2755H33.1208L29.9645 23.0165H11.671L8.38587 26.2755H2.67423L1 24.5839V1Z" fill="white"/>
<path d="M47.7774 31.4974V26.2756H33.5978V31.4974H47.7774Z" fill="white"/>
<path d="M49.5691 6.2179H51.8385C55.5658 6.2179 57.4295 6.2179 58.9075 7.16299C60.3854 8.10808 61.1674 9.79977 62.7312 13.1831L65 18.0917V29.3113H62.2532C62.2532 29.3113 61.9986 22.6844 55.0516 22.6844C50.9976 22.6844 49.5691 26.2755 49.5691 26.2755L49.5691 6.2179Z" fill="white"/>
<circle cx="15.4153" cy="29.4691" r="3.60301" stroke="#00A7B5" stroke-width="2"/>
<circle cx="26.1733" cy="29.4691" r="3.60301" stroke="#00A7B5" stroke-width="2"/>
<circle cx="55.4604" cy="29.4968" r="3.60301" stroke="#00A7B5" stroke-width="2"/>
<path d="M8.38587 26.2755H2.67423L1 24.5839V1H25.2846H49.5691V26.2755H33.1208L29.9645 23.0165H21.011H11.671L8.38587 26.2755ZM8.38587 26.2755V29.5733" stroke="#00A7B5" stroke-width="2" stroke-linecap="round" stroke-linejoin="round"/>
<path d="M33.5979 26.2756V31.4974H38.3908M47.7775 26.2756V31.4974H38.3908M38.3908 31.4974V26.2756" stroke="#00A7B5" stroke-width="2" stroke-linejoin="round"/>
<path d="M49.5691 6.2179H51.8385C55.5658 6.2179 57.4295 6.2179 58.9075 7.16299C60.3854 8.10807 61.1674 9.79977 62.7312 13.1831L65 18.0917V29.3113H62.2532C62.2532 29.3113 61.9986 22.6844 55.0516 22.6844C50.9976 22.6844 49.5691 26.2761 49.5691 26.2761L49.5691 6.2179Z" stroke="#00A7B5" stroke-width="2" stroke-linejoin="round"/>
<path d="M64.4711 17.5563H55.6555C54.5509 17.5563 53.6555 16.6609 53.6555 15.5563V12.2374C53.6555 11.1329 54.5509 10.2374 55.6555 10.2374H61.2803" stroke="#00A7B5" stroke-width="2" stroke-linejoin="round"/>
</svg>
