<svg width="66" height="44" viewBox="0 0 66 44" fill="none" xmlns="http://www.w3.org/2000/svg">
<path d="M37.9417 36.6737C37.9417 39.7502 35.4477 42.2442 32.3712 42.2442C29.2948 42.2442 26.8008 39.7502 26.8008 36.6737C26.8008 33.5972 29.2948 31.1032 32.3712 31.1032C35.4477 31.1032 37.9417 33.5972 37.9417 36.6737Z" fill="white"/>
<path d="M1 36.6737H57.812L61.3316 34.4335V10.7479C61.3316 7.98644 59.093 5.74786 56.3316 5.74786H0.975085L1 36.6737Z" fill="white"/>
<path d="M9.43066 1.00001L25.0314 1.00001L27.3155 5.74786" stroke="#00A7B5" stroke-width="2" stroke-linecap="round" stroke-linejoin="round"/>
<path d="M45.4187 26.1335L32.3738 26.1335L19.3289 26.1335M18.6875 11.2049L41.7187 11.2049L65 11.2049L65 15.3689M5.46072 26.1335L0.999999 26.1335M5.82488 11.2049L0.999999 11.2049" stroke="#00A7B5" stroke-width="2" stroke-linecap="round" stroke-linejoin="round"/>
<path d="M52.4502 36.9537L52.4502 11.4858L49.0163 11.4858L45.8483 11.4858L45.8483 36.9537" stroke="#00A7B5" stroke-width="2" stroke-linejoin="round"/>
<circle cx="32.3962" cy="36.6737" r="5.57048" stroke="#00A7B5" stroke-width="2"/>
<path d="M26.4071 37.6737C26.9594 37.6737 27.4071 37.2259 27.4071 36.6737C27.4071 36.1214 26.9594 35.6737 26.4071 35.6737V37.6737ZM1.04982 35.6737C0.497532 35.6737 0.0498172 36.1214 0.0498172 36.6737C0.0498172 37.2259 0.497532 37.6737 1.04982 37.6737V35.6737ZM57.8369 36.6737V37.6737C58.0271 37.6737 58.2133 37.6194 58.3738 37.5173L57.8369 36.6737ZM38.1644 35.6737C37.6121 35.6737 37.1644 36.1214 37.1644 36.6737C37.1644 37.2259 37.6121 37.6737 38.1644 37.6737V35.6737ZM1.0249 4.74786C0.472618 4.74786 0.0249023 5.19558 0.0249023 5.74786C0.0249023 6.30015 0.472618 6.74786 1.0249 6.74786V4.74786ZM61.3565 34.4335L61.8934 35.2771C62.1818 35.0935 62.3565 34.7753 62.3565 34.4335H61.3565ZM26.4071 35.6737H1.04982V37.6737H26.4071V35.6737ZM57.8369 35.6737H38.1644V37.6737H57.8369V35.6737ZM1.0249 6.74786H56.3565V4.74786H1.0249V6.74786ZM60.8195 33.5899L57.2999 35.83L58.3738 37.5173L61.8934 35.2771L60.8195 33.5899ZM60.3565 10.7479V25.5361H62.3565V10.7479H60.3565ZM60.3565 25.5361V34.4335H62.3565V25.5361H60.3565ZM56.3565 6.74786C58.5656 6.74786 60.3565 8.53873 60.3565 10.7479H62.3565C62.3565 7.43416 59.6702 4.74786 56.3565 4.74786V6.74786Z" fill="#00A7B5"/>
<path d="M61.3564 30.8914C58.448 30.8914 55.2689 30.6032 52.6277 28.5688" stroke="#00A7B5" stroke-width="2"/>
<path d="M18.9438 36.8102L18.9438 11.2056L12.0766 11.2056L5.74132 11.2056L5.74132 36.8102" stroke="#00A7B5" stroke-width="2" stroke-linejoin="round"/>
<path d="M12.3428 37.2489L12.3428 11.4858" stroke="#00A7B5" stroke-width="2" stroke-linejoin="round"/>
</svg>
