<svg width="65" height="35" viewBox="0 0 65 35" fill="none" xmlns="http://www.w3.org/2000/svg">
<path d="M58.9048 14.7367C52.3353 10.3957 43.4737 4.35052 40.212 2.11988C39.3786 1.54996 38.3985 1.24829 37.3889 1.24829H1L1 28.5704H58.1294C63.5969 28.3307 65.2668 18.7999 58.9048 14.7367Z" fill="white"/>
<path d="M8.84985 30.5883C8.84985 29.4837 9.74528 28.5704 10.8499 28.5704H16.6379C17.7425 28.5704 18.6379 29.4837 18.6379 30.5883C18.6379 31.6929 17.7425 32.6063 16.6379 32.6063H10.8499C9.74529 32.6063 8.84985 31.6929 8.84985 30.5883Z" fill="white"/>
<path d="M32 30.5883C32 29.4837 32.8954 28.5704 34 28.5704H39.788C40.8926 28.5704 41.788 29.4837 41.788 30.5883C41.788 31.6929 40.8926 32.6063 39.788 32.6063H34C32.8954 32.6063 32 31.6929 32 30.5883Z" fill="white"/>
<path d="M62.6845 24.0286L40.3074 17.1052C39.9245 16.9867 39.5259 16.9265 39.1251 16.9265H6.64932M1.90674 16.9265H6.64932M6.64932 16.9265V28.3495" stroke="#00A7B5" stroke-width="2" stroke-linecap="round" stroke-linejoin="round"/>
<path d="M32.5669 1.24829L33.9792 8.83978C34.1442 9.72678 34.8827 10.3935 35.7819 10.4673L55.1509 12.057" stroke="#00A7B5" stroke-width="2" stroke-linejoin="round"/>
<path d="M1.30762 1.24829H19.2771H37.6966C38.7061 1.24829 39.6862 1.54996 40.5196 2.11988C43.7813 4.35052 52.6429 10.3957 59.2124 14.7367C65.5744 18.7999 63.9046 28.3307 58.437 28.5704C48.1878 28.5704 15.5595 28.5704 1.30762 28.5704" stroke="#00A7B5" stroke-width="2" stroke-linecap="round" stroke-linejoin="round"/>
<line x1="16.5147" y1="24.8262" x2="12.9293" y2="21.2408" stroke="#00A7B5" stroke-width="2" stroke-linecap="round"/>
<line x1="21.7794" y1="24.8262" x2="18.1939" y2="21.2408" stroke="#00A7B5" stroke-width="2" stroke-linecap="round"/>
<line x1="27.044" y1="24.8262" x2="23.4586" y2="21.2408" stroke="#00A7B5" stroke-width="2" stroke-linecap="round"/>
<line x1="54.1511" y1="33.6063" x2="1.00003" y2="33.6063" stroke="#00A7B5" stroke-width="2" stroke-linecap="round"/>
<rect x="9.15747" y="28.5704" width="9.78803" height="4.03589" rx="2" stroke="#00A7B5" stroke-width="2"/>
<rect x="32.3076" y="28.5704" width="9.78803" height="4.03589" rx="2" stroke="#00A7B5" stroke-width="2"/>
</svg>
