<svg width="53" height="51" viewBox="0 0 53 51" fill="none" xmlns="http://www.w3.org/2000/svg">
<path d="M14.6017 1C10.3604 1 6.92212 4.43825 6.92212 8.67956C6.92212 9.77713 7.15237 10.8209 7.56721 11.7653C10.2372 17.0612 11.4447 18.1606 14.4898 22.3143C18.1043 17.7232 19.1249 16.4985 21.6361 11.7653C22.051 10.8209 22.2812 9.77713 22.2812 8.67956C22.2812 4.43825 18.843 1 14.6017 1Z" fill="white"/>
<path d="M10.3601 49.5108H42.54C43.0827 49.5108 43.6021 49.2902 43.9791 48.8997L50.9592 41.6672C51.319 41.2944 51.5201 40.7965 51.5201 40.2784V21.5955C51.5201 18.834 49.2816 16.5955 46.5201 16.5955H5.69628C3.1026 16.5955 1 18.6981 1 21.2917V39.8662C1 40.3835 1.20044 40.8807 1.55923 41.2534L8.91933 48.898C9.29635 49.2896 9.81652 49.5108 10.3601 49.5108Z" fill="white"/>
<path d="M20.5439 23.0291H26.3257H29.6754M8.38574 23.0291V31.3476V35.1711M29.6754 23.0291H44.4832V31.3476V38.0395V42.7693H39.4737H32.9348H29.6754M29.6754 23.0291V31.3476V35.1711M29.6754 42.7693H26.396H19.8571H17.806M29.6754 42.7693V35.1711M8.38574 35.1711H14.873H17.806M8.38574 35.1711V38.0395V42.7693H13.2267H14.873H17.806M23.122 23.0291V35.1711H17.806M29.6754 35.1711H17.806M33.5917 29.7032H40.6357M33.5917 36.3281H40.6357M17.806 35.1711V42.7693" stroke="#00A7B5" stroke-width="2" stroke-linecap="round" stroke-linejoin="round"/>
<path d="M14.6017 1C10.3604 1 6.92212 4.43825 6.92212 8.67956C6.92212 9.77713 7.15237 10.8209 7.56721 11.7653C10.2372 17.0612 11.4447 18.1606 14.4898 22.3143C18.1043 17.7232 19.1249 16.4985 21.6361 11.7653C22.051 10.8209 22.2812 9.77713 22.2812 8.67956C22.2812 4.43825 18.843 1 14.6017 1Z" stroke="#00A7B5" stroke-width="2" stroke-linejoin="round"/>
<path d="M5.69628 16.5955V16.5955C3.1026 16.5955 1 18.6981 1 21.2917V39.8662C1 40.3835 1.20044 40.8807 1.55923 41.2534L8.91933 48.898C9.29635 49.2896 9.81652 49.5108 10.3601 49.5108H42.54C43.0827 49.5108 43.6021 49.2902 43.9791 48.8997L50.9592 41.6672C51.3191 41.2944 51.5201 40.7965 51.5201 40.2784V21.5955C51.5201 18.834 49.2816 16.5955 46.5201 16.5955H23.7574" stroke="#00A7B5" stroke-width="2" stroke-linecap="round"/>
<circle cx="14.6019" cy="8.57919" r="3.07797" stroke="#00A7B5" stroke-width="2"/>
</svg>
