<svg width="66" height="40" viewBox="0 0 66 40" fill="none" xmlns="http://www.w3.org/2000/svg">
<path d="M20.5951 5.31231L18.5205 1.00002L4.35095 1.00002L4.35095 6.00006L20.5951 6.00006V5.31231Z" fill="white"/>
<path d="M54.5 5.50006L50.7943 1L32.0845 1L29 5.50006L54.5 5.50006Z" fill="white"/>
<path d="M33.9291 33.4009C33.9291 36.1952 31.6639 38.4604 28.8696 38.4604C26.0754 38.4604 23.8102 36.1952 23.8102 33.4009C23.8102 30.6067 26.0754 28.3415 28.8696 28.3415C31.6639 28.3415 33.9291 30.6067 33.9291 33.4009Z" fill="white"/>
<path d="M1 33.4011H62.3077V27.1817L60.9241 26.657V16.1912C60.9241 15.888 60.8593 15.2427 60.7266 14.9702L57.9628 8.13379C57.9074 7.99667 57.8673 7.85382 57.8434 7.70787L57.4505 5.31231H1V33.4011Z" fill="white"/>
<path d="M4.35095 1.00002L18.5205 1.00002L20.5951 5.31232" stroke="#00A7B5" stroke-width="2" stroke-linecap="round" stroke-linejoin="round"/>
<path d="M53.9153 5.12408L50.7943 1.00001L32.0845 1.00001L29.5494 5.12408" stroke="#00A7B5" stroke-width="2" stroke-linecap="round" stroke-linejoin="round"/>
<path d="M17.4867 10.2751L34.0751 10.2751L34.0751 19.4067L22.0381 19.4067" stroke="#00A7B5" stroke-width="2" stroke-linecap="round" stroke-linejoin="round"/>
<path d="M53.4607 33.2585L53.4607 10.2751L47.2234 10.2751L41.4693 10.2751L41.4693 33.2585" stroke="#00A7B5" stroke-width="2" stroke-linejoin="round"/>
<path d="M47.4651 33.6523L47.4651 10.5266" stroke="#00A7B5" stroke-width="2" stroke-linejoin="round"/>
<circle cx="28.8696" cy="33.401" r="5.05946" stroke="#00A7B5" stroke-width="2"/>
<path d="M11.9108 10.6475L8.13901 20.0304L13.976 19.2822L10.3413 27.5978" stroke="#00A7B5" stroke-width="2" stroke-linecap="round" stroke-linejoin="round"/>
<path d="M23.781 34.4011C24.3333 34.4011 24.781 33.9533 24.781 33.4011C24.781 32.8488 24.3333 32.4011 23.781 32.4011V34.4011ZM1 32.4011C0.447715 32.4011 0 32.8488 0 33.4011C0 33.9533 0.447715 34.4011 1 34.4011V32.4011ZM57.4505 5.31232L58.4373 5.15047C58.3581 4.66711 57.9403 4.31232 57.4505 4.31232V5.31232ZM57.8434 7.70787L58.8302 7.54603V7.54602L57.8434 7.70787ZM57.9628 8.13379L58.8899 7.75899L58.8899 7.75898L57.9628 8.13379ZM60.7266 14.9702L59.7995 15.345C59.8081 15.3663 59.8175 15.3873 59.8275 15.408L60.7266 14.9702ZM60.9241 26.657H59.9241C59.9241 27.0725 60.181 27.4448 60.5695 27.5921L60.9241 26.657ZM62.3077 27.1817H63.3077C63.3077 26.7662 63.0507 26.394 62.6622 26.2467L62.3077 27.1817ZM62.3077 33.4011V34.4011C62.86 34.4011 63.3077 33.9533 63.3077 33.4011H62.3077ZM34.0841 32.4011C33.5319 32.4011 33.0841 32.8488 33.0841 33.4011C33.0841 33.9533 33.5319 34.4011 34.0841 34.4011V32.4011ZM1 4.31232C0.447715 4.31232 0 4.76003 0 5.31232C0 5.8646 0.447715 6.31232 1 6.31232V4.31232ZM23.781 32.4011H1V34.4011H23.781V32.4011ZM56.4637 5.47416L56.8566 7.86971L58.8302 7.54602L58.4373 5.15047L56.4637 5.47416ZM57.0357 8.5086L59.7995 15.345L61.6537 14.5954L58.8899 7.75899L57.0357 8.5086ZM59.9241 16.1912V26.657H61.9241V16.1912H59.9241ZM60.5695 27.5921L61.9531 28.1167L62.6622 26.2467L61.2786 25.722L60.5695 27.5921ZM59.8275 15.408C59.8144 15.3809 59.8231 15.3915 59.8408 15.4656C59.8562 15.53 59.8715 15.6131 59.8848 15.7083C59.9123 15.9036 59.9241 16.0937 59.9241 16.1912H61.9241C61.9241 15.9855 61.9035 15.7013 61.8654 15.4301C61.832 15.192 61.7673 14.8232 61.6257 14.5324L59.8275 15.408ZM62.3077 32.4011H34.0841V34.4011H62.3077V32.4011ZM61.3077 27.1817V33.4011H63.3077V27.1817H61.3077ZM1 6.31232H57.4505V4.31232H1V6.31232ZM56.8566 7.86971C56.8925 8.08865 56.9526 8.30292 57.0357 8.5086L58.8899 7.75898C58.8622 7.69042 58.8422 7.619 58.8302 7.54603L56.8566 7.86971Z" fill="#00A7B5"/>
<path d="M58.1445 7.03576L59.926 7.04283L64.8857 7.05466L64.8857 11.5207" stroke="#00A7B5" stroke-width="2" stroke-linecap="round" stroke-linejoin="round"/>
</svg>
