<svg width="66" height="32" viewBox="0 0 66 32" fill="none" xmlns="http://www.w3.org/2000/svg">
<path d="M58.7757 25.1965H7.95311L3.17866 24.5062C2.74065 24.4429 2.52165 24.4112 2.33842 24.347C1.6689 24.1123 1.17381 23.5405 1.03735 22.8443C1 22.6538 1 22.4325 1 21.9899C1 21.8477 1 21.7766 1.0049 21.7067C1.02252 21.4556 1.08735 21.2102 1.19601 20.9832C1.22626 20.92 1.26138 20.8581 1.33162 20.7344L2.13462 19.3204C1.77085 18.0716 1.73335 16.6746 1.85272 15.3724C1.89291 14.934 1.95088 14.5063 2.02016 14.0986C2.13166 13.4426 2.27245 12.8384 2.41561 12.3246C3.0047 10.2106 4.83673 8.8804 6.68159 7.69186L8.25453 6.67849L6.85568 4.4928L12.3636 3.00415C14.293 2.22782 19.4552 0.909285 26.2432 1.00493C27.3187 1.02008 28.435 1.07074 29.5858 1.16468C37.9993 1.8515 45.2352 7.72957 47.6677 9.82819C54.9577 10.3977 59.2337 11.6694 61.1654 12.5573C61.8212 12.8588 62.2389 13.479 62.4235 14.1768L63.2829 17.4245L64.4276 19.3204C64.2611 20.4029 64.241 21.3801 64.3011 22.2202C64.4063 23.6898 64.7572 24.7393 65 25.1965H58.7757Z" fill="white"/>
<circle cx="13.0131" cy="25.1813" r="4.94716" stroke="#00A7B5" stroke-width="2"/>
<circle cx="53.6381" cy="25.1813" r="4.94716" stroke="#00A7B5" stroke-width="2"/>
<path d="M18.3226 25.1965H48.6178M58.7757 25.1965H65C64.7572 24.7393 64.4063 23.6898 64.3011 22.2202M47.6677 9.82819C45.2352 7.72957 37.9993 1.8515 29.5858 1.16468C28.435 1.07074 27.3187 1.02008 26.2432 1.00493M47.6677 9.82819C47.4002 9.80771 47.9352 9.84867 47.6677 9.82819ZM47.6677 9.82819C42.8666 9.82383 34.4429 9.78976 27.5664 9.69691M47.6677 9.82819C54.9577 10.3977 59.2337 11.6694 61.1654 12.5573V12.5573C61.8212 12.8588 62.2389 13.479 62.4235 14.1768L63.2829 17.4245M12.3636 3.00415L6.85568 4.4928L8.25453 6.67849L6.68159 7.69186C4.83673 8.8804 3.0047 10.2106 2.41561 12.3246V12.3246C2.27245 12.8384 2.13166 13.4426 2.02016 14.0986M12.3636 3.00415C12.0829 4.55591 12.8817 9.21403 18.3226 9.47789C20.2873 9.57317 23.6797 9.64443 27.5664 9.69691M12.3636 3.00415C14.293 2.22782 19.4552 0.909285 26.2432 1.00493M2.41561 20.111L2.13462 19.3204C1.77085 18.0716 1.73335 16.6746 1.85272 15.3724C1.89291 14.934 1.95088 14.5063 2.02016 14.0986M2.41561 20.111H5.16356M2.41561 20.111L1.75988 20.6703C1.70332 20.7185 1.67504 20.7426 1.64881 20.7666C1.25362 21.1288 1.02033 21.6344 1.00127 22.1701C1 22.2056 1 22.2428 1 22.3171V22.3171C1 22.4513 1 22.5183 1.00345 22.577C1.0566 23.4812 1.71083 24.2368 2.59815 24.4188C2.65568 24.4306 2.72207 24.4402 2.85483 24.4594L7.95311 25.1965M27.5664 9.69691L26.2432 1.00493M63.2829 17.4245L64.4276 19.3204C64.2611 20.4029 64.241 21.3801 64.3011 22.2202M63.2829 17.4245C62.1216 17.4587 57.9707 17.4245 56.3073 16.5981M64.3011 22.2202H61.675M14.8589 14.0986H17.3948M29.5858 14.0986H32.287M2.02016 14.0986H6.85568" stroke="#00A7B5" stroke-width="2" stroke-linecap="round" stroke-linejoin="round"/>
</svg>
