<svg width="66" height="42" viewBox="0 0 66 42" fill="none" xmlns="http://www.w3.org/2000/svg">
<path d="M22.0726 35.1965C22.0726 37.9062 19.8759 40.1029 17.1662 40.1029C14.4565 40.1029 12.2599 37.9062 12.2599 35.1965C12.2599 32.4868 14.4565 30.2902 17.1662 30.2902C19.8759 30.2902 22.0726 32.4868 22.0726 35.1965Z" fill="white"/>
<path d="M50.6195 33.7947C50.6195 37.2786 47.7952 40.1029 44.3113 40.1029C40.8274 40.1029 38.0032 37.2786 38.0032 33.7947C38.0032 30.3108 40.8274 27.4866 44.3113 27.4866C47.7952 27.4866 50.6195 30.3108 50.6195 33.7947Z" fill="white"/>
<path d="M5 11.5926C5 9.93571 6.34315 8.59256 8 8.59256H43.6567V21.4119H38.3319L32.2928 28.6633L18.5248 25.0126L5 21.4119V11.5926Z" fill="white"/>
<path d="M43.8331 18.5294H49.4466V35.7373H9.45728C7.80042 35.7373 6.45728 34.3941 6.45728 32.7373V21.5521L43.8331 18.5294Z" fill="white"/>
<path d="M54.4425 15.9551L56.3252 2.8208H36.5678L32.0658 8.49399L43.6603 18.5294H51.4729C52.9653 18.5294 54.2308 17.4324 54.4425 15.9551Z" fill="white"/>
<path d="M53.5794 24.3942H49.4468L48.1611 37.4403H65.1611L53.5794 24.3942Z" fill="white"/>
<circle cx="17.0051" cy="35.1965" r="4.90633" stroke="#00A7B5" stroke-width="2"/>
<circle cx="44.1502" cy="33.7947" r="6.30814" stroke="#00A7B5" stroke-width="2"/>
<path d="M43.4956 8.59252V2.92905M43.4956 8.59252H31.6216M43.4956 8.59252V14.2416M31.6216 8.59252H7.83884C6.18199 8.59252 4.83884 9.93567 4.83884 11.5925V21.4118L18.3636 25.0126L32.1317 28.6632L38.1708 21.4118H43.4956V14.2416M31.6216 8.59252C29.4201 4.62306 20.2136 -2.12502 1 2.63833M43.4956 14.2416H34.4098M13.9349 14.2416H23.9582" stroke="#00A7B5" stroke-width="2" stroke-linecap="round" stroke-linejoin="round"/>
<path d="M43.672 18.5293H49.2855V30.2146M6.29614 21.552V32.7372C6.29614 34.394 7.63929 35.7372 9.29614 35.7372H12.3226M22.0815 35.7372H38.1448" stroke="#00A7B5" stroke-width="2" stroke-linejoin="round"/>
<path d="M56.1641 2.82079L54.2814 15.9551C54.0696 17.4324 52.8042 18.5294 51.3118 18.5294H43.4992M56.1641 2.82079H36.4067L31.9047 8.49398M56.1641 2.82079H58.9257" stroke="#00A7B5" stroke-width="2" stroke-linecap="round" stroke-linejoin="round"/>
<path d="M49.2856 24.3941H53.4183L59.8086 31.5924M49.7317 37.4402H65L59.8086 31.5924M50.2465 31.5924H59.8086" stroke="#00A7B5" stroke-width="2" stroke-linecap="round" stroke-linejoin="round"/>
</svg>
