<svg width="66" height="38" viewBox="0 0 66 38" fill="none" xmlns="http://www.w3.org/2000/svg">
<path d="M20.2375 31.3033C20.2375 34.1325 17.944 36.4259 15.1149 36.4259C12.2858 36.4259 9.99231 34.1325 9.99231 31.3033C9.99231 28.4742 12.2858 26.1807 15.1149 26.1807C17.944 26.1807 20.2375 28.4742 20.2375 31.3033Z" fill="white"/>
<path d="M11.417 14.9302C9.89353 14.8301 9.66341 14.7477 9.0169 14.2865C6.2036 12.0274 3.50756 10.3587 1 9.14471L1.19766 31.4938L28.1493 31.5109C29.4619 31.5109 31.1233 30.5985 29.4619 29.8811C28.5667 29.4945 28.7847 28.687 29.0623 28.0883C29.4619 27.2264 29.4086 26.7932 29.4619 23.8077C29.503 21.5053 28.8689 20.0602 27.8971 19.3752C25.3138 17.5546 14.0859 14.9302 11.417 14.9302Z" fill="white"/>
<path d="M48.2593 12.4599V4.20122C48.2593 2.7503 49.4355 1.5741 50.8864 1.5741C52.5013 1.5741 53.8105 2.88325 53.8105 4.49816C53.8105 4.51926 53.8145 4.54016 53.8223 4.55975L55.7108 9.28923C55.7108 7.51649 57.1479 6.07941 58.9206 6.07941C60.6933 6.07941 62.1304 7.51649 62.1304 9.28923C62.1304 10.3508 61.7084 11.3474 60.9142 11.9318L60.7095 12.0732L60.9142 12.031C61.149 11.9764 61.3936 11.9474 61.645 11.9474C63.4178 11.9474 64.8549 13.3845 64.8549 15.1573C64.8549 16.0326 64.5045 16.8261 63.9363 17.4051L64.1329 17.6057C64.6793 18.3851 65 19.3344 65 20.3586C65 22.5271 63.4062 24.4041 61.4321 25C62.4429 26.2122 62.6832 27.9688 61.9066 29.4549C61.5106 30.2129 60.9071 30.7922 60.2022 31.1597L56.49 32.1368C56.3617 32.1706 56.2722 32.2867 56.2722 32.4194C56.2722 34.6321 54.4785 36.4258 52.2658 36.4258C50.053 36.4258 48.2593 34.6321 48.2593 32.4194V24.4442H44.1962L42.8687 30.2636H37V18.3671L25.5 7.97143H42.8687L44.1962 12.4599H48.2593Z" fill="white"/>
<path d="M34.9597 18.3671C34.9597 19.4614 35.8469 20.3486 36.9413 20.3486C38.0356 20.3486 38.9228 19.4614 38.9228 18.3671C38.9228 17.2727 38.0356 16.3855 36.9413 16.3855C35.8469 16.3855 34.9597 17.2727 34.9597 18.3671Z" fill="white"/>
<path d="M23.8197 7.87736C23.8197 8.97174 24.7069 9.85892 25.8013 9.85892C26.8956 9.85892 27.7828 8.97174 27.7828 7.87736C27.7828 6.78298 26.8956 5.89581 25.8013 5.89581C24.7069 5.89581 23.8197 6.78298 23.8197 7.87736Z" fill="white"/>
<path d="M34.9597 29.854C34.9597 30.9484 35.8469 31.8355 36.9413 31.8355C38.0356 31.8355 38.9228 30.9484 38.9228 29.854C38.9228 28.7596 38.0356 27.8724 36.9413 27.8724C35.8469 27.8724 34.9597 28.7596 34.9597 29.854Z" fill="white"/>
<circle cx="15.1149" cy="31.3033" r="5.12259" stroke="#00A7B5" stroke-width="2"/>
<path d="M20.2494 31.8355L28.1493 31.5109C29.4619 31.5109 31.1233 30.5985 29.4619 29.8811C28.5667 29.4945 28.7847 28.687 29.0623 28.0883C29.4619 27.2264 29.4086 26.7932 29.4619 23.8077C29.503 21.5053 28.8689 20.0601 27.8971 19.3752C25.3138 17.5546 14.0859 14.9302 11.417 14.9302C9.89353 14.8301 9.66341 14.7477 9.0169 14.2865C6.2036 12.0274 3.50756 10.3587 1 9.14471" stroke="#00A7B5" stroke-width="2" stroke-linecap="round" stroke-linejoin="round"/>
<path d="M9.99222 31.4938L1.19766 31.4938" stroke="#00A7B5" stroke-width="2" stroke-linecap="round"/>
<path d="M21.0712 21.9272L28.6943 23.7704" stroke="#00A7B5" stroke-width="2" stroke-linecap="round"/>
<path d="M56.2722 32.1942V32.4194C56.2722 34.6321 54.4785 36.4258 52.2657 36.4258V36.4258C50.053 36.4258 48.2593 34.6321 48.2593 32.4194V24.4442H44.1962L42.8687 30.2636H39.2852M53.8105 4.53009V4.49816C53.8105 2.88325 52.5013 1.5741 50.8864 1.5741V1.5741V1.5741C49.4355 1.5741 48.2593 2.7503 48.2593 4.20122V12.4599H44.1962L42.8687 7.97143H39.2852M27.7828 7.97143H33.2269H34.7143" stroke="#00A7B5" stroke-width="2" stroke-linecap="round" stroke-linejoin="round"/>
<path d="M55.7108 9.28923C55.7108 7.51649 57.1478 6.07941 58.9206 6.07941C60.6933 6.07941 62.1304 7.51649 62.1304 9.28923C62.1304 10.3508 61.7084 11.3474 60.9142 11.9318L60.7095 12.0732L60.9142 12.031C61.149 11.9764 61.3936 11.9474 61.645 11.9474C63.4178 11.9474 64.8549 13.3845 64.8549 15.1573C64.8549 16.93 63.4178 18.3671 61.645 18.3671C61.3601 18.3671 61.0839 18.33 60.8209 18.2603" stroke="#00A7B5" stroke-width="2" stroke-linecap="round" stroke-linejoin="round"/>
<path d="M55.5656 21.6228C56.1205 23.6611 57.9846 25.1599 60.1987 25.1599C62.8504 25.1599 65 23.0103 65 20.3586C65 19.3344 64.6793 18.3851 64.1329 17.6057" stroke="#00A7B5" stroke-width="2" stroke-linecap="round"/>
<path d="M61.4301 25.0081C62.4408 26.2202 62.6832 27.9688 61.9066 29.4549C61.5106 30.2129 60.9071 30.7922 60.2022 31.1598" stroke="#00A7B5" stroke-width="2" stroke-linecap="round"/>
<circle r="1.98155" transform="matrix(-1 0 0 1 36.9413 18.367)" stroke="#00A7B5" stroke-width="2"/>
<circle r="1.98155" transform="matrix(-1 0 0 1 25.8013 7.87736)" stroke="#00A7B5" stroke-width="2"/>
<circle r="1.98155" transform="matrix(-1 0 0 1 36.9414 7.87736)" stroke="#00A7B5" stroke-width="2"/>
<circle r="1.98155" transform="matrix(-1 0 0 1 36.9413 29.854)" stroke="#00A7B5" stroke-width="2"/>
<path d="M48.8643 18.3671L38.9229 18.367" stroke="#00A7B5" stroke-width="2" stroke-linecap="round"/>
</svg>
