<svg width="71" height="37" viewBox="0 0 71 37" fill="none" xmlns="http://www.w3.org/2000/svg">
<path d="M28.2466 1.4906L27.6669 31.0561H24.7683C24.7683 33.8387 27.4737 35.3073 28.8263 35.6938C39.4544 36.0803 61.6382 36.6214 65.3484 35.6938C69.0586 34.7663 69.9861 32.2155 69.9861 31.0561H66.5078V2.07032L28.2466 1.4906Z" fill="white"/>
<path d="M1 14.085C1 13.5327 1.44772 13.085 2 13.085H11.3115C11.8638 13.085 12.3115 13.5327 12.3115 14.085V22.3455C12.3115 22.6744 12.1498 22.9822 11.8791 23.1688L7.36906 26.2784C7.03526 26.5085 6.59553 26.5143 6.25576 26.2931L1.45433 23.1666C1.17093 22.982 1 22.6667 1 22.3286V14.085Z" fill="white"/>
<path d="M66.6068 26.3759V2.4906C66.6068 1.93832 66.1591 1.4906 65.6068 1.4906H29.1477C28.5954 1.4906 28.1477 1.93832 28.1477 2.4906V26.3759" stroke="#00A7B5" stroke-width="2" stroke-linecap="round"/>
<path d="M53.5982 30.9004H69.8999C69.9551 30.9004 69.9999 30.9452 69.9999 31.0004V31.425C69.9999 33.6342 68.209 35.425 65.9999 35.425H28.7539C26.5448 35.425 24.7539 33.6342 24.7539 31.425V31.0004C24.7539 30.9452 24.7987 30.9004 24.8539 30.9004H41.7211" stroke="#00A7B5" stroke-width="2" stroke-linecap="round" stroke-linejoin="round"/>
<path d="M36.0654 22.9824L39.4589 16.1955L43.4179 20.1545L46.8113 12.2365L50.2048 15.6299L54.7294 8.27747L58.1228 21.8513" stroke="#00A7B5" stroke-width="2" stroke-linecap="round" stroke-linejoin="round"/>
<path d="M6.81734 26.3759L11.8791 22.8859C12.1498 22.6993 12.3115 22.3915 12.3115 22.0626V13.8021C12.3115 13.2498 11.8638 12.8021 11.3115 12.8021H2C1.44772 12.8021 1 13.2498 1 13.8021V22.0457C1 22.3838 1.17093 22.6991 1.45433 22.8837L6.81734 26.3759ZM6.81734 26.3759L1 32.5972M6.81734 26.3759V32.5972M6.81734 26.3759L12.3115 32.5972" stroke="#00A7B5" stroke-width="2" stroke-linecap="round" stroke-linejoin="round"/>
<path d="M14.574 26.6023C15.4326 27.075 16.9936 27.4614 19.0986 26.7598C21.307 26.0236 23.1661 26.4852 24.1887 26.9874" stroke="#00A7B5" stroke-width="2" stroke-linecap="round" stroke-linejoin="round"/>
</svg>
