<svg width="236" height="30" viewBox="0 0 236 30" fill="none" xmlns="http://www.w3.org/2000/svg">
<path d="M148.659 10.3939V13.2039H153.612V14.8807H148.659V17.9081H154V19.5848H146.905V8.71715H154V10.3939H148.659Z" fill="black"/>
<path d="M155.816 7.63038H157.586V19.5848H155.816V7.63038Z" fill="black"/>
<path d="M168.05 15.7967H161.111C161.25 17.3647 162.353 18.2341 163.781 18.2341C164.806 18.2341 165.659 17.7994 166.063 16.961H167.88C167.212 18.8707 165.582 19.7711 163.765 19.7711C161.173 19.7711 159.325 17.9081 159.325 15.3309C159.325 12.7537 161.157 10.8596 163.734 10.8596C166.482 10.8596 168.221 12.9866 168.05 15.7967ZM161.204 14.3683H166.172C165.908 13.2039 165.023 12.3811 163.734 12.3811C162.399 12.3811 161.499 13.2195 161.204 14.3683Z" fill="black"/>
<path d="M169.417 15.3154C169.417 12.7692 171.311 10.8596 173.857 10.8596C175.875 10.8596 177.66 12.0861 178.049 14.151H176.232C175.906 13.0797 174.959 12.4898 173.857 12.4898C172.273 12.4898 171.186 13.6697 171.186 15.3154C171.186 16.9766 172.304 18.141 173.841 18.141C174.959 18.141 175.906 17.52 176.232 16.4642H178.049C177.645 18.5757 175.844 19.7711 173.841 19.7711C171.311 19.7711 169.417 17.8615 169.417 15.3154Z" fill="black"/>
<path d="M186.101 19.1501C185.635 19.4296 184.642 19.7711 183.664 19.7711C181.909 19.7711 180.543 18.6688 180.543 16.309V12.6916H178.959V11.0459H180.543V9.10528L182.297 8.71715V11.0459H185.806V12.6916H182.297V16.2158C182.297 17.4579 182.872 18.141 183.974 18.141C184.517 18.141 185.123 17.9547 185.791 17.7218L186.101 19.1501Z" fill="black"/>
<path d="M192.684 10.9062V12.6916C192.528 12.6761 192.389 12.6606 192.156 12.6606C190.557 12.6606 189.33 13.561 189.33 15.6725V19.5848H187.576V11.0459H189.33V12.7382C189.843 11.5427 190.821 10.8596 192.171 10.8596C192.389 10.8596 192.56 10.8752 192.684 10.9062Z" fill="black"/>
<path d="M202.397 15.3154C202.397 17.877 200.457 19.7711 197.973 19.7711C195.504 19.7711 193.548 17.8615 193.548 15.3154C193.548 12.7382 195.535 10.8596 197.973 10.8596C200.426 10.8596 202.397 12.7382 202.397 15.3154ZM195.318 15.3154C195.318 16.961 196.482 18.0944 197.973 18.0944C199.463 18.0944 200.627 16.961 200.627 15.3154C200.627 13.6697 199.448 12.5364 197.973 12.5364C196.498 12.5364 195.318 13.6697 195.318 15.3154Z" fill="black"/>
<path d="M211.837 14.1976V19.5848H210.082V14.5546C210.082 13.235 209.508 12.5364 208.219 12.5364C206.713 12.5364 205.906 13.5144 205.906 15.1601V19.5848H204.152V11.0459H205.906V12.4587C206.512 11.4651 207.428 10.8596 208.763 10.8596C210.688 10.8596 211.837 12.1172 211.837 14.1976Z" fill="black"/>
<path d="M215.925 8.26692C215.925 8.90345 215.444 9.36921 214.776 9.36921C214.14 9.36921 213.643 8.90345 213.643 8.26692C213.643 7.64591 214.14 7.19568 214.776 7.19568C215.449 7.19568 215.925 7.64591 215.925 8.26692ZM213.912 11.0459H215.666V19.5848H213.912V11.0459Z" fill="black"/>
<path d="M217.369 15.3154C217.369 12.7692 219.263 10.8596 221.809 10.8596C223.827 10.8596 225.613 12.0861 226.001 14.151H224.184C223.858 13.0797 222.911 12.4898 221.809 12.4898C220.225 12.4898 219.139 13.6697 219.139 15.3154C219.139 16.9766 220.257 18.141 221.794 18.141C222.911 18.141 223.858 17.52 224.184 16.4642H226.001C225.597 18.5757 223.796 19.7711 221.794 19.7711C219.263 19.7711 217.369 17.8615 217.369 15.3154Z" fill="black"/>
<path d="M227.227 16.8368H229.013C229.277 17.7839 229.975 18.2186 231.45 18.2186C232.584 18.2186 233.282 17.877 233.282 17.2405C233.282 16.5263 232.475 16.4177 231.047 16.0761C228.656 15.4862 227.647 15.0049 227.647 13.5765C227.647 11.8532 229.106 10.8596 231.248 10.8596C233.437 10.8596 234.664 11.8998 234.974 13.4523H233.205C232.956 12.7537 232.304 12.4122 231.217 12.4122C230.084 12.4122 229.416 12.8003 229.416 13.3902C229.416 13.9336 229.944 14.0734 231.435 14.4304C233.748 14.9738 235.083 15.3775 235.083 17.0387C235.083 18.8707 233.437 19.7711 231.419 19.7711C229.168 19.7711 227.553 18.6844 227.227 16.8368Z" fill="black"/>
<path d="M24.8197 2.93116H28.9641V28.6079H24.8197V2.93116Z" fill="black"/>
<path d="M48.5522 27.5835C47.4495 28.242 45.1029 29.0521 42.7929 29.0521C38.6484 29.0521 35.4186 26.4494 35.4186 20.873V12.3228H31.6766V8.43443H35.4186V3.85098L39.563 2.93638V8.43966H47.8519V12.328H39.563V20.6535C39.563 23.5907 40.9219 25.2003 43.5246 25.2003C44.8102 25.2003 46.237 24.7613 47.8153 24.2073L48.5522 27.5835Z" fill="black"/>
<path d="M70.4138 19.6605H54.0137C54.343 23.3659 56.9509 25.4198 60.3218 25.4198C62.7416 25.4198 64.759 24.3903 65.7154 22.4095H70.0061C68.4278 26.9198 64.576 29.0469 60.2853 29.0469C54.1601 29.0469 49.7961 24.6464 49.7961 18.5577C49.7961 12.4691 54.1235 7.99542 60.2121 7.99542C66.7084 7.99542 70.8162 13.0231 70.4138 19.6605ZM54.2384 16.2843H65.9767C65.3547 13.5353 63.2642 11.5911 60.2173 11.5911C57.0606 11.5911 54.9335 13.5719 54.2384 16.2843Z" fill="black"/>
<path d="M73.6854 0.365051H77.8665V28.6131H73.6854V0.365051Z" fill="black"/>
<path d="M112.355 15.6624V28.6131H108.21V16.5404C108.21 13.5301 106.998 11.9569 104.212 11.9569C100.946 11.9569 99.2576 14.4865 99.2576 18.1553L99.2942 28.6079H95.1132V16.5404C95.1132 13.5301 93.9007 11.9569 91.1151 11.9569C87.8487 11.9569 86.1972 14.4865 86.1972 18.1553V28.6079H82.0527V8.43443H86.1972V11.6643C87.5926 9.35426 89.5733 7.99542 92.4687 7.99542C95.5522 7.99542 97.7159 9.50059 98.7037 12.213C100.062 9.61034 102.336 7.99542 105.529 7.99542C109.783 7.99542 112.355 10.8542 112.355 15.6624Z" fill="black"/>
<path d="M136.176 8.43443V28.6079H132.032V25.2317C130.563 27.5417 128.143 29.0469 124.987 29.0469C119.593 29.0469 115.668 24.6829 115.668 18.5212C115.668 12.3594 119.666 7.99542 124.95 7.99542C128.143 7.99542 130.563 9.57376 132.032 11.8838V8.43443H136.176ZM132.063 18.5212C132.063 14.6694 129.387 11.9569 125.865 11.9569C122.342 11.9569 119.849 14.6694 119.849 18.5212C119.849 22.4095 122.379 25.0854 125.865 25.0854C129.387 25.0906 132.063 22.4095 132.063 18.5212Z" fill="black"/>
<path d="M1.60452 12.9239C2.36075 12.9239 2.9738 12.3108 2.9738 11.5546C2.9738 10.7984 2.36075 10.1853 1.60452 10.1853C0.84828 10.1853 0.235229 10.7984 0.235229 11.5546C0.235229 12.3108 0.84828 12.9239 1.60452 12.9239Z" fill="black"/>
<path d="M12.0519 12.9239C12.8081 12.9239 13.4211 12.3108 13.4211 11.5546C13.4211 10.7984 12.8081 10.1853 12.0519 10.1853C11.2956 10.1853 10.6826 10.7984 10.6826 11.5546C10.6826 12.3108 11.2956 12.9239 12.0519 12.9239Z" fill="black"/>
<path d="M12.0519 23.3712C12.8081 23.3712 13.4211 22.7582 13.4211 22.0019C13.4211 21.2457 12.8081 20.6326 12.0519 20.6326C11.2956 20.6326 10.6826 21.2457 10.6826 22.0019C10.6826 22.7582 11.2956 23.3712 12.0519 23.3712Z" fill="black"/>
</svg>
